0
SECTION
2
HEADER
9
$INSUNITS
70
4
9
$ACADVER
1
AC1014
9
$HANDSEED
5
FFFF
0
ENDSEC
0
SECTION
2
TABLES
0
TABLE
2
VPORT
5
8
100
AcDbSymbolTable
0
ENDTAB
0
TABLE
2
LTYPE
5
5
100
AcDbSymbolTable
0
LTYPE
5
14
100
AcDbSymbolTableRecord
100
AcDbLinetypeTableRecord
2
BYBLOCK
70
0
0
LTYPE
5
15
100
AcDbSymbolTableRecord
100
AcDbLinetypeTableRecord
2
BYLAYER
70
0
0
ENDTAB
0
TABLE
2
LAYER
5
2
100
AcDbSymbolTable
70
2
0
LAYER
5
50
100
AcDbSymbolTableRecord
100
AcDbLayerTableRecord
2
0
70
0
6
CONTINUOUS
0
ENDTAB
0
TABLE
2
STYLE
5
3
100
AcDbSymbolTable
70
1
0
STYLE
5
11
100
AcDbSymbolTableRecord
100
AcDbTextStyleTableRecord
2
STANDARD
70
0
0
ENDTAB
0
TABLE
2
VIEW
5
6
100
AcDbSymbolTable
70
0
0
ENDTAB
0
TABLE
2
UCS
5
7
100
AcDbSymbolTable
70
0
0
ENDTAB
0
TABLE
2
APPID
5
9
100
AcDbSymbolTable
70
2
0
APPID
5
12
100
AcDbSymbolTableRecord
100
AcDbRegAppTableRecord
2
ACAD
70
0
0
ENDTAB
0
TABLE
2
DIMSTYLE
5
A
100
AcDbSymbolTable
70
1
0
ENDTAB
0
TABLE
2
BLOCK_RECORD
5
1
100
AcDbSymbolTable
70
1
0
BLOCK_RECORD
5
1F
100
AcDbSymbolTableRecord
100
AcDbBlockTableRecord
2
*MODEL_SPACE
0
BLOCK_RECORD
5
1B
100
AcDbSymbolTableRecord
100
AcDbBlockTableRecord
2
*PAPER_SPACE
0
ENDTAB
0
ENDSEC
0
SECTION
2
BLOCKS
0
BLOCK
5
20
100
AcDbEntity
100
AcDbBlockBegin
2
*MODEL_SPACE
0
ENDBLK
5
21
100
AcDbEntity
100
AcDbBlockEnd
0
BLOCK
5
1C
100
AcDbEntity
100
AcDbBlockBegin
2
*PAPER_SPACE
0
ENDBLK
5
1D
100
AcDbEntity
100
AcDbBlockEnd
0
ENDSEC
0
SECTION
2
ENTITIES
0
LWPOLYLINE
5
100
100
AcDbEntity
8
OUTER_PROFILES
100
AcDbPolyline
90
28
70
1
43
0.0
10
0
20
287.01394636292332
10
216
20
287.01394636292332
42
-0.41421356237309503
10
218
20
285.01394636292338
10
218
20
158.30009832380466
10
216
20
158.30009832380466
10
216
20
154.30009832380466
10
232.04778684233858
20
154.30009832380463
42
-0.41421356237309503
10
234.04778684233858
20
152.30009832380463
10
234.04778684233858
20
14.547786842338597
42
-0.4142135623730947
10
232.04778684233858
20
12.547786842338599
10
227.04778684233858
20
12.547786842338606
10
227.04778684233858
20
16.047786842338585
10
218
20
16.047786842338585
10
218
20
2.0000000000000102
42
-0.41421356237309764
10
216
20
-6.9388939039072284e-15
10
1.3877787807814454e-16
20
1.0547118733938987e-14
42
-0.41421356237309509
10
-1.9999999999999929
20
2.0000000000000107
10
-1.9999999999999929
20
16.047786842338585
10
-11.047786842338638
20
16.047786842338585
10
-11.047786842338638
20
12.547786842338624
10
-16.047786842338603
20
12.547786842338617
42
-0.41421356237309503
10
-18.047786842338631
20
14.547786842338617
10
-18.047786842338603
20
152.30009832380466
42
-0.4142135623730947
10
-16.047786842338606
20
154.30009832380466
10
0
20
154.30009832380466
10
0
20
158.30009832380466
10
-1.9999999999999929
20
158.30009832380466
10
-2.0000000000000009
20
285.01394636292338
42
-0.41421356237309503
0
CIRCLE
5
101
100
AcDbEntity
8
INTERIOR_PROFILES
100
AcDbCircle
10
-12.999999999999972
20
267.90072501349516
30
0
40
1.9999999999999929
210
0
220
0
230
-1
0
CIRCLE
5
102
100
AcDbEntity
8
INTERIOR_PROFILES
100
AcDbCircle
10
-188.00000000000006
20
267.90072501349516
30
0
40
1.9999999999999929
210
0
220
0
230
-1
0
CIRCLE
5
103
100
AcDbEntity
8
INTERIOR_PROFILES
100
AcDbCircle
10
-203.00000000000006
20
267.90072501349516
30
0
40
1.9999999999999929
210
0
220
0
230
-1
0
CIRCLE
5
104
100
AcDbEntity
8
INTERIOR_PROFILES
100
AcDbCircle
10
-27.999999999999972
20
267.90072501349516
30
0
40
1.9999999999999929
210
0
220
0
230
-1
0
LINE
5
105
100
AcDbEntity
8
BEND
100
AcDbLine
10
-6.5238934211693334
20
16.047786842338585
30
-3.5527136788005009e-14
11
-6.5238934211693334
21
154.30009832380469
31
-3.8857805861880479e-14
0
LINE
5
106
100
AcDbEntity
8
BEND
100
AcDbLine
10
218
20
247.53086660263094
30
-3.5527136788005009e-14
11
-1.9999999999999929
21
247.53086660263094
31
-3.219646771412954e-14
0
LINE
5
107
100
AcDbEntity
8
BEND
100
AcDbLine
10
218
20
11.523893421169298
30
-3.8857805861880479e-14
11
-1.9999999999999929
21
11.523893421169298
31
-3.8857805861880479e-14
0
LINE
5
108
100
AcDbEntity
8
BEND
100
AcDbLine
10
222.52389342116928
20
154.30009832380466
30
-3.8857805861880479e-14
11
222.52389342116928
21
16.047786842338585
31
-3.5527136788005009e-14
0
LINE
5
109
100
AcDbEntity
8
BEND_EXTENT
100
AcDbLine
10
-11.047786842338638
20
16.047786842338585
30
-5.3290705182007514e-14
11
-11.047786842338638
21
154.30009832380469
31
-5.3290705182007514e-14
0
LINE
5
110
100
AcDbEntity
8
BEND_EXTENT
100
AcDbLine
10
218
20
6.9999999999999929
30
-3.5527136788005009e-14
11
-1.9999999999999929
21
6.9999999999999929
31
-3.5527136788005009e-14
0
LINE
5
111
100
AcDbEntity
8
BEND_EXTENT
100
AcDbLine
10
227.04778684233858
20
154.30009832380466
30
-3.5527136788005009e-14
11
227.04778684233858
21
16.047786842338585
31
-3.5527136788005009e-14
0
LINE
5
112
100
AcDbEntity
8
BEND_EXTENT
100
AcDbLine
10
218
20
16.047786842338585
30
-3.5527136788005009e-14
11
218
21
154.30009832380466
31
-3.5527136788005009e-14
0
LINE
5
113
100
AcDbEntity
8
BEND_EXTENT
100
AcDbLine
10
-1.9999999999999929
20
16.047786842338585
30
-3.5527136788005009e-14
11
218
21
16.047786842338585
31
-3.5527136788005009e-14
0
LINE
5
114
100
AcDbEntity
8
BEND_EXTENT
100
AcDbLine
10
-1.9999999999999929
20
154.30009832380466
30
-3.5527136788005009e-14
11
-1.9999999999999929
21
16.047786842338585
31
-3.5527136788005009e-14
0
LINE
5
115
100
AcDbEntity
8
BEND_EXTENT
100
AcDbLine
10
218
20
246.27422954119507
30
-3.5527136788005009e-14
11
-1.9999999999999929
21
246.27422954119507
31
-3.5527136788005009e-14
0
LINE
5
116
100
AcDbEntity
8
BEND_EXTENT
100
AcDbLine
10
-1.9999999999999929
20
248.78750366406683
30
-3.5527136788005009e-14
11
218
21
248.78750366406683
31
-3.5527136788005009e-14
0
ENDSEC
0
SECTION
2
OBJECTS
0
DICTIONARY
5
C
100
AcDbDictionary
3
ACAD_GROUP
350
D
3
ACAD_MLINESTYLE
350
17
0
DICTIONARY
5
D
100
AcDbDictionary
0
DICTIONARY
5
1A
330
C
100
AcDbDictionary
0
DICTIONARY
5
17
100
AcDbDictionary
0
ENDSEC
0
EOF
