0
SECTION
2
HEADER
9
$INSUNITS
70
4
9
$ACADVER
1
AC1014
9
$HANDSEED
5
FFFF
0
ENDSEC
0
SECTION
2
TABLES
0
TABLE
2
VPORT
5
8
100
AcDbSymbolTable
0
ENDTAB
0
TABLE
2
LTYPE
5
5
100
AcDbSymbolTable
0
LTYPE
5
14
100
AcDbSymbolTableRecord
100
AcDbLinetypeTableRecord
2
BYBLOCK
70
0
0
LTYPE
5
15
100
AcDbSymbolTableRecord
100
AcDbLinetypeTableRecord
2
BYLAYER
70
0
0
ENDTAB
0
TABLE
2
LAYER
5
2
100
AcDbSymbolTable
70
2
0
LAYER
5
50
100
AcDbSymbolTableRecord
100
AcDbLayerTableRecord
2
0
70
0
6
CONTINUOUS
0
ENDTAB
0
TABLE
2
STYLE
5
3
100
AcDbSymbolTable
70
1
0
STYLE
5
11
100
AcDbSymbolTableRecord
100
AcDbTextStyleTableRecord
2
STANDARD
70
0
0
ENDTAB
0
TABLE
2
VIEW
5
6
100
AcDbSymbolTable
70
0
0
ENDTAB
0
TABLE
2
UCS
5
7
100
AcDbSymbolTable
70
0
0
ENDTAB
0
TABLE
2
APPID
5
9
100
AcDbSymbolTable
70
2
0
APPID
5
12
100
AcDbSymbolTableRecord
100
AcDbRegAppTableRecord
2
ACAD
70
0
0
ENDTAB
0
TABLE
2
DIMSTYLE
5
A
100
AcDbSymbolTable
70
1
0
ENDTAB
0
TABLE
2
BLOCK_RECORD
5
1
100
AcDbSymbolTable
70
1
0
BLOCK_RECORD
5
1F
100
AcDbSymbolTableRecord
100
AcDbBlockTableRecord
2
*MODEL_SPACE
0
BLOCK_RECORD
5
1B
100
AcDbSymbolTableRecord
100
AcDbBlockTableRecord
2
*PAPER_SPACE
0
ENDTAB
0
ENDSEC
0
SECTION
2
BLOCKS
0
BLOCK
5
20
100
AcDbEntity
100
AcDbBlockBegin
2
*MODEL_SPACE
0
ENDBLK
5
21
100
AcDbEntity
100
AcDbBlockEnd
0
BLOCK
5
1C
100
AcDbEntity
100
AcDbBlockBegin
2
*PAPER_SPACE
0
ENDBLK
5
1D
100
AcDbEntity
100
AcDbBlockEnd
0
ENDSEC
0
SECTION
2
ENTITIES
0
CIRCLE
5
100
100
AcDbEntity
8
0
100
AcDbCircle
10
-8.8817841970012523e-15
20
-45
30
0
40
32.5
210
0
220
0
230
1
0
CIRCLE
5
101
100
AcDbEntity
8
0
100
AcDbCircle
10
7.6807871290264341e-15
20
44.999999999999993
30
0
40
32.5
210
0
220
0
230
1
0
CIRCLE
5
102
100
AcDbEntity
8
0
100
AcDbCircle
10
70
20
50.000000000000007
30
0
40
2.0000000000000018
210
0
220
0
230
1
0
CIRCLE
5
103
100
AcDbEntity
8
0
100
AcDbCircle
10
70
20
-50.000000000000007
30
0
40
2.0000000000000018
210
0
220
0
230
1
0
CIRCLE
5
104
100
AcDbEntity
8
0
100
AcDbCircle
10
-70
20
50.000000000000007
30
0
40
2.0000000000000018
210
0
220
0
230
1
0
CIRCLE
5
105
100
AcDbEntity
8
0
100
AcDbCircle
10
-70
20
-50.000000000000007
30
0
40
2.0000000000000018
210
0
220
0
230
1
0
CIRCLE
5
106
100
AcDbEntity
8
0
100
AcDbCircle
10
-60.000000000000028
20
-69.999999999999986
30
0
40
2.0000000000000018
210
0
220
0
230
1
0
CIRCLE
5
107
100
AcDbEntity
8
0
100
AcDbCircle
10
70
20
69.999999999999986
30
0
40
2.0000000000000018
210
0
220
0
230
1
0
CIRCLE
5
108
100
AcDbEntity
8
0
100
AcDbCircle
10
-70
20
-69.999999999999986
30
0
40
2.0000000000000018
210
0
220
0
230
1
0
CIRCLE
5
109
100
AcDbEntity
8
0
100
AcDbCircle
10
70
20
-69.999999999999986
30
0
40
2.0000000000000018
210
0
220
0
230
1
0
CIRCLE
5
110
100
AcDbEntity
8
0
100
AcDbCircle
10
59.999999999999972
20
70.000000000000014
30
0
40
2.0000000000000018
210
0
220
0
230
1
0
CIRCLE
5
111
100
AcDbEntity
8
0
100
AcDbCircle
10
-60.000000000000028
20
70.000000000000014
30
0
40
2.0000000000000018
210
0
220
0
230
1
0
CIRCLE
5
112
100
AcDbEntity
8
0
100
AcDbCircle
10
59.999999999999972
20
-69.999999999999986
30
0
40
2.0000000000000018
210
0
220
0
230
1
0
CIRCLE
5
113
100
AcDbEntity
8
0
100
AcDbCircle
10
-65.000000000000028
20
-74.000000000000014
30
0
40
1.5000000000000036
210
0
220
0
230
1
0
CIRCLE
5
114
100
AcDbEntity
8
0
100
AcDbCircle
10
65.000000000000156
20
-66.000000000000057
30
0
40
1.5000000000000036
210
0
220
0
230
1
0
CIRCLE
5
115
100
AcDbEntity
8
0
100
AcDbCircle
10
-65.000000000000028
20
74.000000000000014
30
0
40
1.5000000000000036
210
0
220
0
230
1
0
CIRCLE
5
116
100
AcDbEntity
8
0
100
AcDbCircle
10
-65.000000000000156
20
-66.000000000000057
30
0
40
1.5000000000000036
210
0
220
0
230
1
0
CIRCLE
5
117
100
AcDbEntity
8
0
100
AcDbCircle
10
65.000000000000028
20
-74.000000000000014
30
0
40
1.5000000000000036
210
0
220
0
230
1
0
CIRCLE
5
118
100
AcDbEntity
8
0
100
AcDbCircle
10
-65.000000000000156
20
66.000000000000057
30
0
40
1.5000000000000036
210
0
220
0
230
1
0
ARC
5
119
100
AcDbEntity
8
0
100
AcDbCircle
10
65.000000000000156
20
66.000000000000057
30
0
40
1.5000000000000031
210
0
220
0
230
1
100
AcDbArc
50
-57.157676649778551
51
237.15767664976366
0
SPLINE
5
120
100
AcDbEntity
8
0
100
AcDbSpline
70
0
71
3
72
10
73
6
74
0
42
0.000000001
43
0.0000000001
44
0.0000000001
40
0.23759884514678595
40
0.23759884514678595
40
0.23759884514678595
40
0.23759884514678595
40
0.24852047511085479
40
0.24852047511085479
40
0.28514280399515268
40
0.28514280399515268
40
0.28514280399515268
40
0.28514280399515268
10
65.813493460544422
20
64.739750663697166
30
0
10
65.784785611930999
20
64.717246955707509
30
0
10
65.755239888840848
20
64.6957842044107
30
0
10
65.623244154527882
20
64.607065628903072
30
0
10
65.513600112648632
20
64.551402621446471
30
0
10
65.39851384185738
20
64.509350571781482
30
0
0
ARC
5
121
100
AcDbEntity
8
0
100
AcDbCircle
10
65.000000000000156
20
66.000000000000057
30
0
40
1.5430000000000632
210
0
220
0
230
1
100
AcDbArc
50
255.03244098388419
51
284.96755901611533
0
SPLINE
5
122
100
AcDbEntity
8
0
100
AcDbSpline
70
0
71
3
72
8
73
4
74
0
42
0.000000001
43
0.0000000001
44
0.0000000001
40
0
40
0
40
0
40
0
40
0.047845303039937323
40
0.047845303039937323
40
0.047845303039937323
40
0.047845303039937323
10
64.601486158142919
20
64.509350571781482
30
0
10
64.451688652572571
20
64.564085963767212
30
0
10
64.311557826348889
20
64.641717752431674
30
0
10
64.186506539455593
20
64.739750663697407
30
0
0
ARC
5
123
100
AcDbEntity
8
0
100
AcDbCircle
10
65.000000000000028
20
74.000000000000014
30
0
40
1.500000000000008
210
0
220
0
230
1
100
AcDbArc
50
-57.157676649765619
51
237.15767664980325
0
SPLINE
5
124
100
AcDbEntity
8
0
100
AcDbSpline
70
0
71
3
72
10
73
6
74
0
42
0.000000001
43
0.0000000001
44
0.0000000001
40
0.23759884514673768
40
0.23759884514673768
40
0.23759884514673768
40
0.23759884514673768
40
0.24852047511084216
40
0.24852047511084216
40
0.28514280399515513
40
0.28514280399515513
40
0.28514280399515513
40
0.28514280399515513
10
65.813493460544578
20
72.739750663697365
30
0
10
65.784785611931056
20
72.717246955707651
30
0
10
65.755239888840805
20
72.695784204410757
30
0
10
65.623244154527811
20
72.607065628903115
30
0
10
65.513600112648604
20
72.551402621446499
30
0
10
65.398513841857294
20
72.509350571781482
30
0
0
ARC
5
125
100
AcDbEntity
8
0
100
AcDbCircle
10
65.000000000000028
20
74.000000000000014
30
0
40
1.5430000000000073
210
0
220
0
230
1
100
AcDbArc
50
255.03244098388427
51
284.96755901611721
0
SPLINE
5
126
100
AcDbEntity
8
0
100
AcDbSpline
70
0
71
3
72
8
73
4
74
0
42
0.000000001
43
0.0000000001
44
0.0000000001
40
0
40
0
40
0
40
0
40
0.047845303039832567
40
0.047845303039832567
40
0.047845303039832567
40
0.047845303039832567
10
64.601486158142805
20
72.509350571781496
30
0
10
64.451688652572784
20
72.564085963767099
30
0
10
64.311557826349386
20
72.641717752431333
30
0
10
64.186506539456303
20
72.739750663696753
30
0
0
CIRCLE
5
127
100
AcDbEntity
8
0
100
AcDbCircle
10
-70
20
69.999999999999986
30
0
40
1.6000000000000014
210
0
220
0
230
1
0
CIRCLE
5
128
100
AcDbEntity
8
0
100
AcDbCircle
10
-14.600000000000005
20
4.999999999999992
30
0
40
1.6000000000000014
210
0
220
0
230
1
0
CIRCLE
5
129
100
AcDbEntity
8
0
100
AcDbCircle
10
34.399999999999999
20
-5.0000000000000071
30
0
40
1.6000000000000014
210
0
220
0
230
1
0
CIRCLE
5
130
100
AcDbEntity
8
0
100
AcDbCircle
10
-34.399999999999999
20
-5.0000000000000071
30
0
40
1.6000000000000014
210
0
220
0
230
1
0
CIRCLE
5
131
100
AcDbEntity
8
0
100
AcDbCircle
10
-14.600000000000005
20
-5.0000000000000071
30
0
40
1.6000000000000014
210
0
220
0
230
1
0
CIRCLE
5
132
100
AcDbEntity
8
0
100
AcDbCircle
10
34.399999999999999
20
4.999999999999992
30
0
40
1.6000000000000014
210
0
220
0
230
1
0
CIRCLE
5
133
100
AcDbEntity
8
0
100
AcDbCircle
10
-34.400000000000006
20
4.9999999999999405
30
0
40
1.6000000000000014
210
0
220
0
230
1
0
CIRCLE
5
134
100
AcDbEntity
8
0
100
AcDbCircle
10
25.000000000000004
20
19.999999999999989
30
0
40
1.2000000000000011
210
0
220
0
230
1
0
CIRCLE
5
135
100
AcDbEntity
8
0
100
AcDbCircle
10
-24.999999999999996
20
-69.999999999999986
30
0
40
1.2000000000000011
210
0
220
0
230
1
0
CIRCLE
5
136
100
AcDbEntity
8
0
100
AcDbCircle
10
25.000000000000004
20
-19.999999999999989
30
0
40
1.2000000000000011
210
0
220
0
230
1
0
CIRCLE
5
137
100
AcDbEntity
8
0
100
AcDbCircle
10
25
20
-69.999999999999986
30
0
40
1.2000000000000011
210
0
220
0
230
1
0
CIRCLE
5
138
100
AcDbEntity
8
0
100
AcDbCircle
10
-24.999999999999996
20
-19.999999999999989
30
0
40
1.2000000000000011
210
0
220
0
230
1
0
CIRCLE
5
139
100
AcDbEntity
8
0
100
AcDbCircle
10
-24.999999999999996
20
19.999999999999989
30
0
40
1.2000000000000011
210
0
220
0
230
1
0
LWPOLYLINE
5
140
100
AcDbEntity
8
0
100
AcDbPolyline
90
4
70
1
43
0.0
10
-10.100000000000007
20
-10.499999999999998
10
30.899999999999999
20
-10.499999999999998
10
30.899999999999999
20
10.499999999999998
10
-10.100000000000007
20
10.499999999999998
0
CIRCLE
5
141
100
AcDbEntity
8
0
100
AcDbCircle
10
-24.999999999999996
20
69.999999999999986
30
0
40
1.2000000000000011
210
0
220
0
230
1
0
CIRCLE
5
142
100
AcDbEntity
8
0
100
AcDbCircle
10
25
20
69.999999999999986
30
0
40
1.2000000000000011
210
0
220
0
230
1
0
LWPOLYLINE
5
143
100
AcDbEntity
8
0
100
AcDbPolyline
90
8
70
1
43
0.0
10
70.000000000000014
20
-79.999999999999986
10
-69.999999999999986
20
-79.999999999999972
42
-0.41421356237309476
10
-79.999999999999986
20
-70
10
-80.000000000000014
20
70
42
-0.41421356237309453
10
-70
20
80
10
70
20
79.999999999999986
42
-0.41421356237309426
10
80
20
70
10
80
20
-70
42
-0.41421356237309426
0
ENDSEC
0
SECTION
2
OBJECTS
0
DICTIONARY
5
C
100
AcDbDictionary
3
ACAD_GROUP
350
D
3
ACAD_MLINESTYLE
350
17
0
DICTIONARY
5
D
100
AcDbDictionary
0
DICTIONARY
5
1A
330
C
100
AcDbDictionary
0
DICTIONARY
5
17
100
AcDbDictionary
0
ENDSEC
0
EOF
