0
SECTION
2
HEADER
9
$INSUNITS
70
4
9
$ACADVER
1
AC1014
9
$HANDSEED
5
FFFF
0
ENDSEC
0
SECTION
2
TABLES
0
TABLE
2
VPORT
5
8
100
AcDbSymbolTable
0
ENDTAB
0
TABLE
2
LTYPE
5
5
100
AcDbSymbolTable
0
LTYPE
5
14
100
AcDbSymbolTableRecord
100
AcDbLinetypeTableRecord
2
BYBLOCK
70
0
0
LTYPE
5
15
100
AcDbSymbolTableRecord
100
AcDbLinetypeTableRecord
2
BYLAYER
70
0
0
ENDTAB
0
TABLE
2
LAYER
5
2
100
AcDbSymbolTable
70
2
0
LAYER
5
50
100
AcDbSymbolTableRecord
100
AcDbLayerTableRecord
2
0
70
0
6
CONTINUOUS
0
ENDTAB
0
TABLE
2
STYLE
5
3
100
AcDbSymbolTable
70
1
0
STYLE
5
11
100
AcDbSymbolTableRecord
100
AcDbTextStyleTableRecord
2
STANDARD
70
0
0
ENDTAB
0
TABLE
2
VIEW
5
6
100
AcDbSymbolTable
70
0
0
ENDTAB
0
TABLE
2
UCS
5
7
100
AcDbSymbolTable
70
0
0
ENDTAB
0
TABLE
2
APPID
5
9
100
AcDbSymbolTable
70
2
0
APPID
5
12
100
AcDbSymbolTableRecord
100
AcDbRegAppTableRecord
2
ACAD
70
0
0
ENDTAB
0
TABLE
2
DIMSTYLE
5
A
100
AcDbSymbolTable
70
1
0
ENDTAB
0
TABLE
2
BLOCK_RECORD
5
1
100
AcDbSymbolTable
70
1
0
BLOCK_RECORD
5
1F
100
AcDbSymbolTableRecord
100
AcDbBlockTableRecord
2
*MODEL_SPACE
0
BLOCK_RECORD
5
1B
100
AcDbSymbolTableRecord
100
AcDbBlockTableRecord
2
*PAPER_SPACE
0
ENDTAB
0
ENDSEC
0
SECTION
2
BLOCKS
0
BLOCK
5
20
100
AcDbEntity
100
AcDbBlockBegin
2
*MODEL_SPACE
0
ENDBLK
5
21
100
AcDbEntity
100
AcDbBlockEnd
0
BLOCK
5
1C
100
AcDbEntity
100
AcDbBlockBegin
2
*PAPER_SPACE
0
ENDBLK
5
1D
100
AcDbEntity
100
AcDbBlockEnd
0
ENDSEC
0
SECTION
2
ENTITIES
0
CIRCLE
5
100
100
AcDbEntity
8
0
100
AcDbCircle
10
-25.000000000000036
20
70.000000000000014
30
0
40
1.6000000000000014
0
CIRCLE
5
101
100
AcDbEntity
8
0
100
AcDbCircle
10
24.999999999999964
20
-20.000000000000007
30
0
40
1.6000000000000014
0
CIRCLE
5
102
100
AcDbEntity
8
0
100
AcDbCircle
10
-25.000000000000036
20
-20.000000000000007
30
0
40
1.6000000000000014
0
CIRCLE
5
103
100
AcDbEntity
8
0
100
AcDbCircle
10
24.999999999999964
20
20.000000000000004
30
0
40
1.6000000000000014
0
CIRCLE
5
104
100
AcDbEntity
8
0
100
AcDbCircle
10
-25.000000000000036
20
20.000000000000004
30
0
40
1.6000000000000014
0
CIRCLE
5
105
100
AcDbEntity
8
0
100
AcDbCircle
10
24.999999999999964
20
-70.000000000000014
30
0
40
1.6000000000000014
0
CIRCLE
5
106
100
AcDbEntity
8
0
100
AcDbCircle
10
-25.000000000000036
20
-70.000000000000014
30
0
40
1.6000000000000014
0
CIRCLE
5
107
100
AcDbEntity
8
0
100
AcDbCircle
10
24.999999999999964
20
70.000000000000014
30
0
40
1.6000000000000014
0
CIRCLE
5
108
100
AcDbEntity
8
0
100
AcDbCircle
10
-59.399999999999991
20
4.9999999999999938
30
0
40
1.6000000000000014
0
CIRCLE
5
109
100
AcDbEntity
8
0
100
AcDbCircle
10
-34.399999999999999
20
4.999999999999992
30
0
40
1.6000000000000014
0
CIRCLE
5
110
100
AcDbEntity
8
0
100
AcDbCircle
10
14.600000000000005
20
-5.0000000000000071
30
0
40
1.6000000000000014
0
CIRCLE
5
111
100
AcDbEntity
8
0
100
AcDbCircle
10
-3.3861802251067274e-14
20
-45.000000000000007
30
0
40
29.999999999999996
0
CIRCLE
5
112
100
AcDbEntity
8
0
100
AcDbCircle
10
-59.399999999999991
20
-5.0000000000000071
30
0
40
1.6000000000000014
0
CIRCLE
5
113
100
AcDbEntity
8
0
100
AcDbCircle
10
0
20
0
30
0
40
12.000000000000002
0
CIRCLE
5
114
100
AcDbEntity
8
0
100
AcDbCircle
10
-34.399999999999999
20
-5.0000000000000071
30
0
40
1.6000000000000014
0
CIRCLE
5
115
100
AcDbEntity
8
0
100
AcDbCircle
10
14.600000000000005
20
4.999999999999992
30
0
40
1.6000000000000014
0
CIRCLE
5
116
100
AcDbEntity
8
0
100
AcDbCircle
10
-3.3861802251067274e-14
20
45.000000000000007
30
0
40
30
0
CIRCLE
5
117
100
AcDbEntity
8
0
100
AcDbCircle
10
-45
20
0
30
0
40
2.5
0
CIRCLE
5
118
100
AcDbEntity
8
0
100
AcDbCircle
10
-69.5
20
-69.500000000000298
30
0
40
2.0000000000000018
0
CIRCLE
5
119
100
AcDbEntity
8
0
100
AcDbCircle
10
69.5
20
-69.500000000000298
30
0
40
2.0000000000000018
0
CIRCLE
5
120
100
AcDbEntity
8
0
100
AcDbCircle
10
-69.5
20
69.500000000000298
30
0
40
2.0000000000000018
0
CIRCLE
5
121
100
AcDbEntity
8
0
100
AcDbCircle
10
69.5
20
69.500000000000298
30
0
40
2.0000000000000018
0
LWPOLYLINE
5
122
100
AcDbEntity
8
0
100
AcDbPolyline
90
8
70
1
43
0.0
10
-59.499999999999993
20
-79.499999999999829
42
-0.41421356237309492
10
-79.5
20
-59.499999999999844
10
-79.5
20
59.499999999999986
42
-0.41421356237309492
10
-59.499999999999993
20
79.499999999999986
10
59.499999999999886
20
79.499999999999972
42
-0.41421356237309492
10
79.499999999999886
20
59.499999999999986
10
79.499999999999901
20
-59.499999999999844
42
-0.41421356237309492
10
59.499999999999886
20
-79.499999999999844
0
CIRCLE
5
123
100
AcDbEntity
8
0
100
AcDbCircle
10
14.600000000000005
20
-5.0000000000000071
30
0
40
2.1000000000000001
0
CIRCLE
5
124
100
AcDbEntity
8
0
100
AcDbCircle
10
14.600000000000005
20
4.999999999999992
30
0
40
2.1000000000000001
0
LINE
5
125
100
AcDbEntity
8
0
100
AcDbLine
10
14.600000000000005
20
-5.0000000000000071
30
0
11
14.600000000000005
21
4.999999999999992
31
0
0
LINE
5
126
100
AcDbEntity
8
0
100
AcDbLine
10
19.600000000000005
20
-10.000000000000007
30
0
11
9.600000000000005
21
-10.000000000000007
31
0
0
LINE
5
127
100
AcDbEntity
8
0
100
AcDbLine
10
9.600000000000005
20
-10.000000000000007
30
0
11
9.600000000000005
21
9.9999999999999929
31
0
0
LINE
5
128
100
AcDbEntity
8
0
100
AcDbLine
10
9.600000000000005
20
9.9999999999999929
30
0
11
19.600000000000005
21
9.9999999999999929
31
0
0
LINE
5
129
100
AcDbEntity
8
0
100
AcDbLine
10
19.600000000000005
20
9.9999999999999929
30
0
11
19.600000000000005
21
-10.000000000000007
31
0
0
LINE
5
130
100
AcDbEntity
8
0
100
AcDbLine
10
19.600000000000005
20
-10.000000000000007
30
0
11
9.600000000000005
21
9.9999999999999929
31
0
0
LINE
5
131
100
AcDbEntity
8
0
100
AcDbLine
10
9.600000000000005
20
-10.000000000000007
30
0
11
19.600000000000005
21
9.9999999999999929
31
0
0
CIRCLE
5
132
100
AcDbEntity
8
0
100
AcDbCircle
10
-3.3861802251067274e-14
20
45.000000000000007
30
0
40
31.499999999999993
0
CIRCLE
5
133
100
AcDbEntity
8
0
100
AcDbCircle
10
-25.000000000000036
20
20.000000000000004
30
0
40
1.9999999999999973
0
CIRCLE
5
134
100
AcDbEntity
8
0
100
AcDbCircle
10
24.999999999999964
20
20.000000000000004
30
0
40
1.9999999999999973
0
CIRCLE
5
135
100
AcDbEntity
8
0
100
AcDbCircle
10
24.999999999999964
20
70.000000000000014
30
0
40
1.9999999999999973
0
CIRCLE
5
136
100
AcDbEntity
8
0
100
AcDbCircle
10
-25.000000000000036
20
70.000000000000014
30
0
40
1.9999999999999973
0
LWPOLYLINE
5
137
100
AcDbEntity
8
0
100
AcDbPolyline
90
4
70
1
43
0.0
10
20.242282479997176
20
79.499999999999972
42
-0.66707867595107595
10
10.199485583736037
20
6.322222222222238
42
0.55667295484308288
10
-10.199485583736065
20
6.3222222222222246
42
-0.66707867595107662
10
-20.242282479997229
20
79.5
0
LINE
5
138
100
AcDbEntity
8
0
100
AcDbLine
10
-2.5
20
0
30
0
11
-20
21
0
31
0
0
ARC
5
139
100
AcDbEntity
8
0
100
AcDbCircle
10
-3.3861802251067274e-14
20
-45.000000000000007
30
0
40
39.999999999999993
100
AcDbArc
50
-59.598452336756864
51
75.227176886991728
0
CIRCLE
5
140
100
AcDbEntity
8
0
100
AcDbCircle
10
0
20
0
30
0
40
12.000000000000002
0
ENDSEC
0
SECTION
2
OBJECTS
0
DICTIONARY
5
C
100
AcDbDictionary
3
ACAD_GROUP
350
D
3
ACAD_MLINESTYLE
350
17
0
DICTIONARY
5
D
100
AcDbDictionary
0
DICTIONARY
5
1A
330
C
100
AcDbDictionary
0
DICTIONARY
5
17
100
AcDbDictionary
0
ENDSEC
0
EOF
