0
SECTION
2
HEADER
9
$INSUNITS
70
4
9
$ACADVER
1
AC1014
9
$HANDSEED
5
FFFF
0
ENDSEC
0
SECTION
2
TABLES
0
TABLE
2
VPORT
5
8
100
AcDbSymbolTable
0
ENDTAB
0
TABLE
2
LTYPE
5
5
100
AcDbSymbolTable
0
LTYPE
5
14
100
AcDbSymbolTableRecord
100
AcDbLinetypeTableRecord
2
BYBLOCK
70
0
0
LTYPE
5
15
100
AcDbSymbolTableRecord
100
AcDbLinetypeTableRecord
2
BYLAYER
70
0
0
ENDTAB
0
TABLE
2
LAYER
5
2
100
AcDbSymbolTable
70
2
0
LAYER
5
50
100
AcDbSymbolTableRecord
100
AcDbLayerTableRecord
2
0
70
0
6
CONTINUOUS
0
ENDTAB
0
TABLE
2
STYLE
5
3
100
AcDbSymbolTable
70
1
0
STYLE
5
11
100
AcDbSymbolTableRecord
100
AcDbTextStyleTableRecord
2
STANDARD
70
0
0
ENDTAB
0
TABLE
2
VIEW
5
6
100
AcDbSymbolTable
70
0
0
ENDTAB
0
TABLE
2
UCS
5
7
100
AcDbSymbolTable
70
0
0
ENDTAB
0
TABLE
2
APPID
5
9
100
AcDbSymbolTable
70
2
0
APPID
5
12
100
AcDbSymbolTableRecord
100
AcDbRegAppTableRecord
2
ACAD
70
0
0
ENDTAB
0
TABLE
2
DIMSTYLE
5
A
100
AcDbSymbolTable
70
1
0
ENDTAB
0
TABLE
2
BLOCK_RECORD
5
1
100
AcDbSymbolTable
70
1
0
BLOCK_RECORD
5
1F
100
AcDbSymbolTableRecord
100
AcDbBlockTableRecord
2
*MODEL_SPACE
0
BLOCK_RECORD
5
1B
100
AcDbSymbolTableRecord
100
AcDbBlockTableRecord
2
*PAPER_SPACE
0
ENDTAB
0
ENDSEC
0
SECTION
2
BLOCKS
0
BLOCK
5
20
100
AcDbEntity
100
AcDbBlockBegin
2
*MODEL_SPACE
0
ENDBLK
5
21
100
AcDbEntity
100
AcDbBlockEnd
0
BLOCK
5
1C
100
AcDbEntity
100
AcDbBlockBegin
2
*PAPER_SPACE
0
ENDBLK
5
1D
100
AcDbEntity
100
AcDbBlockEnd
0
ENDSEC
0
SECTION
2
ENTITIES
0
ARC
5
100
100
AcDbEntity
8
OUTER_PROFILES
100
AcDbCircle
10
441.78584013175396
20
11.785840131753949
30
0
40
2.9999999999999716
100
AcDbArc
50
-90
51
0
0
LINE
5
101
100
AcDbEntity
8
OUTER_PROFILES
100
AcDbLine
10
444.78584013175396
20
11.785840131753972
30
0
11
444.78584013175396
21
87.785840131753929
31
0
0
ARC
5
102
100
AcDbEntity
8
OUTER_PROFILES
100
AcDbCircle
10
441.78584013175396
20
87.785840131753957
30
0
40
3.0000000000000071
100
AcDbArc
50
0
51
90
0
LINE
5
103
100
AcDbEntity
8
OUTER_PROFILES
100
AcDbLine
10
441.78584013175396
20
90.785840131753957
30
0
11
0
21
90.785840131753957
31
0
0
ARC
5
104
100
AcDbEntity
8
OUTER_PROFILES
100
AcDbCircle
10
0
20
87.785840131753957
30
0
40
3.0000000000000004
100
AcDbArc
50
90
51
180
0
LINE
5
105
100
AcDbEntity
8
OUTER_PROFILES
100
AcDbLine
10
-3.0000000000000004
20
87.785840131753957
30
0
11
-2.9999999999999716
21
3.4680954488418081
31
0
0
LINE
5
106
100
AcDbEntity
8
OUTER_PROFILES
100
AcDbLine
10
-2.9999999999999716
20
3.4680954488418081
30
0
11
-2.9999999999999716
21
2.7233757022290561
31
0
0
SPLINE
5
107
100
AcDbEntity
8
OUTER_PROFILES
100
AcDbSpline
70
0
71
3
72
8
73
4
74
0
42
0.000000001
43
0.0000000001
44
0.0000000001
40
1.4098093685935587
40
1.4098093685935587
40
1.4098093685935587
40
1.4098093685935587
40
1.5087027526623242
40
1.5087027526623242
40
1.5087027526623242
40
1.5087027526623242
10
-3.0000000000000089
20
2.7233757022290561
30
0
10
-3.000000000000008
20
2.4860315804640187
30
0
10
-2.9443991996773802
20
2.2361733649628945
30
0
10
-2.8284271247462014
20
2.0000000000000107
30
0
0
ARC
5
108
100
AcDbEntity
8
OUTER_PROFILES
100
AcDbCircle
10
0
20
2.9999999999999893
30
0
40
3.0000000000000004
100
AcDbArc
50
199.47122063449021
51
270
0
LINE
5
109
100
AcDbEntity
8
OUTER_PROFILES
100
AcDbLine
10
5.5109105961630905e-16
20
-1.1102230246251565e-14
30
0
11
396
21
0
31
0
0
ARC
5
110
100
AcDbEntity
8
OUTER_PROFILES
100
AcDbCircle
10
396
20
2.9999999999999893
30
0
40
2.999999999999996
100
AcDbArc
50
270
51
340.52877936550937
0
SPLINE
5
111
100
AcDbEntity
8
OUTER_PROFILES
100
AcDbSpline
70
0
71
3
72
8
73
4
74
0
42
0.000000001
43
0.0000000001
44
0.0000000001
40
0.35645457490524562
40
0.35645457490524562
40
0.35645457490524562
40
0.35645457490524562
40
0.45534795897401409
40
0.45534795897401409
40
0.45534795897401409
40
0.45534795897401409
10
398.82842712474627
20
1.9999999999999929
30
0
10
398.94439919967743
20
2.2361733649628945
30
0
10
399
20
2.4860315804640187
30
0
10
399
20
2.7233757022290561
30
0
0
LINE
5
112
100
AcDbEntity
8
OUTER_PROFILES
100
AcDbLine
10
399
20
2.7233757022290561
30
0
11
399.00000000000006
21
3.4680954488418085
31
0
0
LINE
5
113
100
AcDbEntity
8
OUTER_PROFILES
100
AcDbLine
10
399.00000000000006
20
3.4680954488418085
30
0
11
399.00000000000006
21
8.7858401317539503
31
0
0
LINE
5
114
100
AcDbEntity
8
OUTER_PROFILES
100
AcDbLine
10
399.00000000000006
20
8.7858401317539503
30
0
11
441.78584013175396
21
8.7858401317539485
31
0
0
LWPOLYLINE
5
115
100
AcDbEntity
8
INTERIOR_PROFILES
100
AcDbPolyline
90
4
70
1
43
0.0
10
250.50000000000006
20
70.785840131753986
42
0.99999999999999989
10
253.5
20
70.785840131753986
10
253.5
20
73.785840131753972
42
0.99999999999999989
10
250.50000000000006
20
73.785840131753972
0
LWPOLYLINE
5
116
100
AcDbEntity
8
INTERIOR_PROFILES
100
AcDbPolyline
90
4
70
1
43
0.0
10
128.5
20
70.785840131754
10
128.5
20
73.785840131753986
42
0.99999999999999989
10
125.5
20
73.785840131754
10
125.5
20
70.785840131754
42
0.99999999999999989
0
LWPOLYLINE
5
117
100
AcDbEntity
8
INTERIOR_PROFILES
100
AcDbPolyline
90
4
70
1
43
0.0
10
378.5
20
70.785840131753957
10
378.5
20
73.785840131753972
42
0.99999999999999989
10
375.50000000000006
20
73.785840131753972
10
375.50000000000006
20
70.785840131753957
42
0.99999999999999989
0
LINE
5
118
100
AcDbEntity
8
BEND
100
AcDbLine
10
399.00000000000006
20
5.3929200658769894
30
-7.7715611723760958e-15
11
-2.9999999999999716
21
5.3929200658769894
31
-6.6613381477509392e-15
0
LINE
5
119
100
AcDbEntity
8
BEND
100
AcDbLine
10
402.39292006587698
20
90.785840131753943
30
-1.6098233857064773e-14
11
402.39292006587698
21
8.7858401317539148
31
-1.6098233857064773e-14
0
LINE
5
120
100
AcDbEntity
8
BEND_EXTENT
100
AcDbLine
10
405.78584013175396
20
90.785840131753943
30
-4.4408920985006262e-14
11
405.78584013175396
21
8.7858401317539148
31
-4.4408920985006262e-14
0
LINE
5
121
100
AcDbEntity
8
BEND_EXTENT
100
AcDbLine
10
398.82842712474621
20
2.0000000000000107
30
-8.8817841970012523e-15
11
-2.8284271247461845
21
2.0000000000000107
31
-8.8817841970012523e-15
0
LINE
5
122
100
AcDbEntity
8
BEND_EXTENT
100
AcDbLine
10
-2.9999999999999716
20
8.7858401317539503
30
-8.8817841970012523e-15
11
399.00000000000006
21
8.7858401317539503
31
-8.8817841970012523e-15
0
LINE
5
123
100
AcDbEntity
8
BEND_EXTENT
100
AcDbLine
10
399.00000000000006
20
8.7858401317539503
30
-8.8817841970012523e-15
11
399.00000000000006
21
90.785840131753957
31
-8.8817841970012523e-15
0
ENDSEC
0
SECTION
2
OBJECTS
0
DICTIONARY
5
C
100
AcDbDictionary
3
ACAD_GROUP
350
D
3
ACAD_MLINESTYLE
350
17
0
DICTIONARY
5
D
100
AcDbDictionary
0
DICTIONARY
5
1A
330
C
100
AcDbDictionary
0
DICTIONARY
5
17
100
AcDbDictionary
0
ENDSEC
0
EOF
